ffmpeg started on 2016-11-23 at 11:56:29
Report written to "Output/NVENCh264/results/ffmpeg/crowd_run_2160p50fast500k.log"
Command line:
Tools/ffmpeg/ffmpeg -benchmark -y -i Input/y4m/crowd_run_2160p50.y4m -c:v h264_nvenc -preset fast -b:v 500k -an Output/NVENCh264/encoded/crowd_run_2160p50fast500k.mkv
ffmpeg version N-82227-gdb23fde Copyright (c) 2000-2016 the FFmpeg developers
  built with gcc 5.4.0 (Ubuntu 5.4.0-6ubuntu1~16.04.2) 20160609
  configuration: --prefix=/home/jaroslav/ffmpeg_build --pkg-config-flags=--static --extra-cflags=-I/home/jaroslav/ffmpeg_build/include --extra-ldflags=-L/home/jaroslav/ffmpeg_build/lib --bindir=/home/jaroslav/bin --enable-gpl --enable-libass --enable-libfdk-aac --enable-libfreetype --enable-libmp3lame --enable-libopus --enable-libtheora --enable-libvorbis --enable-libvpx --enable-libx264 --enable-libx265 --enable-nvenc --enable-libmfx --enable-libxvid --enable-libgsm --enable-libopencore-amrnb --enable-version3 --enable-nonfree
  libavutil      55. 35.100 / 55. 35.100
  libavcodec     57. 66.101 / 57. 66.101
  libavformat    57. 57.100 / 57. 57.100
  libavdevice    57.  2.100 / 57.  2.100
  libavfilter     6. 66.100 /  6. 66.100
  libswscale      4.  3.100 /  4.  3.100
  libswresample   2.  4.100 /  2.  4.100
  libpostproc    54.  2.100 / 54.  2.100
Input #0, yuv4mpegpipe, from 'Input/y4m/crowd_run_2160p50.y4m':
  Duration: 00:00:10.00, start: 0.000000, bitrate: 4976642 kb/s
    Stream #0:0: Video: rawvideo (I420 / 0x30323449), yuv420p(progressive), 3840x2160, SAR 1:1 DAR 16:9, 50 fps, 50 tbr, 50 tbn, 50 tbc
Output #0, matroska, to 'Output/NVENCh264/encoded/crowd_run_2160p50fast500k.mkv':
  Metadata:
    encoder         : Lavf57.57.100
    Stream #0:0: Video: h264 (h264_nvenc) (Main) (H264 / 0x34363248), yuv420p, 3840x2160 [SAR 1:1 DAR 16:9], q=-1--1, 500 kb/s, 50 fps, 1k tbn, 50 tbc
    Metadata:
      encoder         : Lavc57.66.101 h264_nvenc
    Side data:
      cpb: bitrate max/min/avg: 0/0/500000 buffer size: 1000000 vbv_delay: -1
Stream mapping:
  Stream #0:0 -> #0:0 (rawvideo (native) -> h264 (h264_nvenc))
Press [q] to stop, [?] for help
frame=   17 fps=0.0 q=0.0 size=       0kB time=00:00:00.00 bitrate=N/A speed=   0x    frame=   35 fps= 34 q=49.0 size=       1kB time=00:00:00.08 bitrate=  72.4kbits/s speed=0.0781x    frame=   53 fps= 34 q=49.0 size=       1kB time=00:00:00.44 bitrate=  13.3kbits/s speed=0.284x    frame=   71 fps= 34 q=49.0 size=       1kB time=00:00:00.80 bitrate=   7.3kbits/s speed=0.387x    frame=   89 fps= 34 q=49.0 size=       1kB time=00:00:01.16 bitrate=   5.1kbits/s speed=0.448x    frame=  107 fps= 34 q=49.0 size=       1kB time=00:00:01.52 bitrate=   3.9kbits/s speed=0.488x    frame=  125 fps= 34 q=49.0 size=       1kB time=00:00:01.88 bitrate=   3.1kbits/s speed=0.518x    frame=  143 fps= 34 q=49.0 size=       1kB time=00:00:02.24 bitrate=   2.6kbits/s speed=0.54x    frame=  144 fps= 19 q=49.0 size=       1kB time=00:00:02.26 bitrate=   2.6kbits/s speed=0.301x    frame=  145 fps= 13 q=49.0 size=       1kB time=00:00:02.28 bitrate=   2.6kbits/s speed=0.201x    frame=  147 fps= 12 q=49.0 size=       1kB time=00:00:02.32 bitrate=   2.5kbits/s speed=0.196x    frame=  165 fps= 13 q=49.0 size=       1kB time=00:00:02.68 bitrate=   2.2kbits/s speed=0.217x    frame=  182 fps= 14 q=49.0 size=       1kB time=00:00:03.02 bitrate=   1.9kbits/s speed=0.234x    frame=  199 fps= 15 q=49.0 size=       1kB time=00:00:03.36 bitrate=   1.7kbits/s speed=0.251x    frame=  216 fps= 16 q=49.0 size=       1kB time=00:00:03.70 bitrate=   1.6kbits/s speed=0.266x    frame=  234 fps= 16 q=49.0 size=       1kB time=00:00:04.06 bitrate=   1.4kbits/s speed=0.281x    frame=  252 fps= 17 q=49.0 size=       1kB time=00:00:04.42 bitrate=   1.3kbits/s speed=0.296x    frame=  270 fps= 17 q=49.0 size=       1kB time=00:00:04.78 bitrate=   1.2kbits/s speed=0.309x    frame=  287 fps= 18 q=49.0 size=    3727kB time=00:00:05.12 bitrate=5961.3kbits/s speed=0.321x    frame=  305 fps= 18 q=49.0 size=    3727kB time=00:00:05.48 bitrate=5569.8kbits/s speed=0.332x    frame=  323 fps= 19 q=49.0 size=    3727kB time=00:00:05.84 bitrate=5226.5kbits/s speed=0.343x    frame=  341 fps= 19 q=49.0 size=    3727kB time=00:00:06.20 bitrate=4923.1kbits/s speed=0.354x    frame=  359 fps= 20 q=49.0 size=    3727kB time=00:00:06.56 bitrate=4652.9kbits/s speed=0.363x    frame=  377 fps= 20 q=49.0 size=    3727kB time=00:00:06.92 bitrate=4410.9kbits/s speed=0.373x    frame=  395 fps= 21 q=49.0 size=    3727kB time=00:00:07.28 bitrate=4192.8kbits/s speed=0.381x    frame=  413 fps= 21 q=49.0 size=    3727kB time=00:00:07.64 bitrate=3995.3kbits/s speed=0.39x    frame=  431 fps= 21 q=49.0 size=    3727kB time=00:00:08.00 bitrate=3815.5kbits/s speed=0.398x    frame=  449 fps= 22 q=49.0 size=    3727kB time=00:00:08.36 bitrate=3651.2kbits/s speed=0.405x    frame=  467 fps= 22 q=49.0 size=    3727kB time=00:00:08.72 bitrate=3500.5kbits/s speed=0.413x    frame=  485 fps= 22 q=49.0 size=    3727kB time=00:00:09.08 bitrate=3361.7kbits/s speed=0.419x    frame=  500 fps= 23 q=49.0 Lsize=    7760kB time=00:00:09.98 bitrate=6369.4kbits/s speed=0.451x    
video:7756kB audio:0kB subtitle:0kB other streams:0kB global headers:0kB muxing overhead: 0.057088%
bench: utime=1.076s
bench: maxrss=982584kB
